{"accessors" : [{"bufferView" : 0, "byteOffset" : 0, "componentType" : 5123, "count" : 2484, "type" : "SCALAR", "max" : [2483], "min" : [0]}, {"bufferView" : 1, "byteOffset" : 0, "componentType" : 5126, "count" : 2484, "type" : "VEC3", "max" : [2.8125083446502686, 2.8125081062316895, 0.37763720750808716], "min" : [-2.8125083446502686, -2.8125085830688477, 0.00021748608560301363], "name" : "POSITION"}, {"bufferView" : 1, "byteOffset" : 12, "componentType" : 5126, "count" : 2484, "type" : "VEC3", "max" : [0.9790181517601013, 0.9790163636207581, 0.9966446161270142], "min" : [-0.9790189862251282, -0.979020893573761, -0.9966051578521729], "name" : "NORMAL"}, {"bufferView" : 1, "byteOffset" : 24, "componentType" : 5126, "count" : 2484, "type" : "VEC2", "max" : [0.9999999403953552, -0], "min" : [0, -1], "name" : "TEXCOORD_0"}, {"bufferView" : 0, "byteOffset" : 4968, "componentType" : 5123, "count" : 1824, "type" : "SCALAR", "max" : [1823], "min" : [0]}, {"bufferView" : 2, "byteOffset" : 0, "componentType" : 5126, "count" : 1824, "type" : "VEC3", "max" : [0.9999997019767761, 0.9999985694885254, 0.9664415121078491], "min" : [-0.9999990463256836, -0.9999994039535522, -0.0002611575764603913], "name" : "POSITION"}, {"bufferView" : 2, "byteOffset" : 12, "componentType" : 5126, "count" : 1824, "type" : "VEC3", "max" : [0.9904295206069946, 0.9853583574295044, 0.9983605146408081], "min" : [-0.9901514053344727, -0.9904090166091919, -1.0000044107437134], "name" : "NORMAL"}, {"bufferView" : 2, "byteOffset" : 24, "componentType" : 5126, "count" : 1824, "type" : "VEC2", "max" : [1.3276922702789307, 0.02954903244972229], "min" : [-0.32769227027893066, -0.9386410713195801], "name" : "TEXCOORD_0"}], "asset" : {"generator" : "Aspose.3D 23.2", "version" : "2.0"}, "buffers" : [{"uri" : "data:application/octet-stream;base64,", "byteLength" : 146484}], "bufferViews" : [{"buffer" : 0, "byteOffset" : 0, "byteLength" : 8616, "target" : 34963}, {"buffer" : 0, "byteOffset" : 8620, "byteLength" : 79488, "byteStride" : 32, "target" : 34962}, {"buffer" : 0, "byteOffset" : 88112, "byteLength" : 58368, "byteStride" : 32, "target" : 34962}], "images" : [{"uri" : "C:\\Users\\husai\\Desktop\\sitemodels\\olivie\\textures\\bake_oliv_albedo_fix.jpg"}], "materials" : [{"name" : "Material.002", "pbrMetallicRoughness" : {"baseColorFactor" : [0.800000011920929, 0.800000011920929, 0.800000011920929, 1], "baseColorTexture" : {"index" : 0, "texCoord" : 0}, "metallicFactor" : 0, "roughnessFactor" : 0}, "emissiveFactor" : [0, 0, 0], "alphaMode" : "OPAQUE", "doubleSided" : false}], "meshes" : [{"primitives" : [{"attributes" : {"POSITION" : 1, "NORMAL" : 2, "TEXCOORD_0" : 3}, "indices" : 0, "mode" : 4}], "name" : "Cylinder.003"}, {"primitives" : [{"attributes" : {"POSITION" : 5, "NORMAL" : 6, "TEXCOORD_0" : 7}, "indices" : 4, "material" : 0, "mode" : 4}], "name" : "Sphere"}], "nodes" : [{"matrix" : [100, 0, 0, 0, 0, -1.6292067955264296E-05, -99.99999999999866, 0, 0, 99.99999999999866, -1.6292067955264296E-05, 0, 0, 0, 0, 1], "mesh" : 0, "name" : "asiete"}, {"matrix" : [170.3876190185547, 0, 0, 0, 0, -2.775966667785976E-05, -170.3876190185524, 0, 0, 80.53967285156142, -1.312157823192411E-05, 0, 0, 10.950498580932617, 0, 1], "mesh" : 1, "name" : "Sphere"}], "samplers" : [{"magFilter" : 9729, "minFilter" : 9729, "wrapS" : 10497, "wrapT" : 10497}], "scene" : 0, "scenes" : [{"nodes" : [0, 1]}], "textures" : [{"sampler" : 0, "source" : 0, "name" : "base_color_texture"}]}